<?xml version="1.0" encoding="utf-8"?>
<!DOCTYPE svg PUBLIC "-//W3C//DTD SVG 1.1//EN" "http://www.w3.org/Graphics/SVG/1.1/DTD/svg11.dtd">
<svg version="1.1" id="Layer_1" xmlns="http://www.w3.org/2000/svg" xmlns:xlink="http://www.w3.org/1999/xlink" x="0px" y="0px"
width="1160px" height="1160px" viewBox="0 0 1160 1160" enable-background="new 0 0 1160 1160" xml:space="preserve">
<rect x="0" y="0" width="1160" height="1160" fill="rgb(255,255,255)" /><g transform="translate(80,80)"><g transform="translate(320,0) scale(0.08,0.08)"><g transform="" style="fill: rgb(39, 161, 197);">
<path d="M250,0c138.077,0,250,111.93,250,250c0,138.077-111.923,250-250,250C111.93,500,0,388.077,0,250C0,111.93,111.93,0,250,0z"
	/>
</g></g><g transform="translate(480,0) scale(2.8571428571429,2.8571428571429)"><g transform="" style="fill: rgb(39, 161, 197);">
    <path d="M13.999,0v14c0,0-9.151-4.381-14-0.551C-0.001,13.449-0.242,0,13.999,0z"/>
</g></g><g transform="translate(520,0) scale(2.8571428571429,2.8571428571429)"><g transform="" style="fill: rgb(39, 161, 197);">
    <path d="M13.999,13.999H0V0.028v-0.029h3.43C9.269-0.001,13.999,6.267,13.999,13.999z"/>
</g></g><g transform="translate(400,40) scale(2.8571428571429,2.8571428571429)"><g transform="" style="fill: rgb(39, 161, 197);">
    <path d="M14,14H0c0,0,4.38-9.15,0.55-14C0.55,0,14-0.24,14,14z"/>
</g></g><g transform="translate(520,40) scale(0.4,0.4)"><g transform="" style="fill: rgb(39, 161, 197);">
<rect width="100" height="100"/>
</g></g><g transform="translate(640,40) scale(0.08,0.08)"><g transform="" style="fill: rgb(39, 161, 197);">
<path d="M250,0c138.077,0,250,111.93,250,250c0,138.077-111.923,250-250,250C111.93,500,0,388.077,0,250C0,111.93,111.93,0,250,0z"
	/>
</g></g><g transform="translate(320,80) scale(2.8571428571429,2.8571428571429)"><g transform="" style="fill: rgb(39, 161, 197);">
    <path d="M13.999,0v14c0,0-9.151-4.381-14-0.551C-0.001,13.449-0.242,0,13.999,0z"/>
</g></g><g transform="translate(360,80) scale(0.4,0.4)"><g transform="" style="fill: rgb(39, 161, 197);">
<rect width="100" height="100"/>
</g></g><g transform="translate(400,80) scale(0.4,0.4)"><g transform="" style="fill: rgb(39, 161, 197);">
<rect width="100" height="100"/>
</g></g><g transform="translate(440,80) scale(2.8571428571429,2.8571428571429)"><g transform="" style="fill: rgb(39, 161, 197);">
    <path d="M13.999,13.999H0V0.028v-0.029h3.43C9.269-0.001,13.999,6.267,13.999,13.999z"/>
</g></g><g transform="translate(520,80) scale(0.4,0.4)"><g transform="" style="fill: rgb(39, 161, 197);">
<rect width="100" height="100"/>
</g></g><g transform="translate(600,80) scale(2.8571428571429,2.8571428571429)"><g transform="" style="fill: rgb(39, 161, 197);">
    <path d="M14,14H0c0,0,4.38-9.15,0.55-14C0.55,0,14-0.24,14,14z"/>
</g></g><g transform="translate(400,120) scale(2.8571428571429,2.8571428571429)"><g transform="" style="fill: rgb(39, 161, 197);">
        <path d="M0-0.001h14v13.97v0.029l-3.431,0.001C4.731,13.999,0,7.731,0-0.001z"/>
</g></g><g transform="translate(440,120) scale(0.4,0.4)"><g transform="" style="fill: rgb(39, 161, 197);">
<rect width="100" height="100"/>
</g></g><g transform="translate(480,120) scale(0.4,0.4)"><g transform="" style="fill: rgb(39, 161, 197);">
<rect width="100" height="100"/>
</g></g><g transform="translate(520,120) scale(2.8571428571429,2.8571428571429)"><g transform="" style="fill: rgb(39, 161, 197);">
    <path d="M0,14V0h13.971H14v3.43C14,9.27,7.732,14,0,14z"/>
</g></g><g transform="translate(600,120) scale(2.8571428571429,2.8571428571429)"><g transform="" style="fill: rgb(39, 161, 197);">
    <path d="M-0.001,0l14,0c0,0-4.381,9.151-0.551,14C13.448,14-0.001,14.24-0.001,0z"/>
</g></g><g transform="translate(440,160) scale(2.8571428571429,2.8571428571429)"><g transform="" style="fill: rgb(39, 161, 197);">
        <path d="M0-0.001h14v13.97v0.029l-3.431,0.001C4.731,13.999,0,7.731,0-0.001z"/>
</g></g><g transform="translate(480,160) scale(0.4,0.4)"><g transform="" style="fill: rgb(39, 161, 197);">
<rect width="100" height="100"/>
</g></g><g transform="translate(560,160) scale(2.8571428571429,2.8571428571429)"><g transform="" style="fill: rgb(39, 161, 197);">
    <path d="M14,14H0c0,0,4.38-9.15,0.55-14C0.55,0,14-0.24,14,14z"/>
</g></g><g transform="translate(320,200) scale(2.8571428571429,2.8571428571429)"><g transform="" style="fill: rgb(39, 161, 197);">
    <path d="M14,14H0c0,0,4.38-9.15,0.55-14C0.55,0,14-0.24,14,14z"/>
</g></g><g transform="translate(480,200) scale(0.4,0.4)"><g transform="" style="fill: rgb(39, 161, 197);">
<rect width="100" height="100"/>
</g></g><g transform="translate(520,200) scale(0.4,0.4)"><g transform="" style="fill: rgb(39, 161, 197);">
<rect width="100" height="100"/>
</g></g><g transform="translate(560,200) scale(0.4,0.4)"><g transform="" style="fill: rgb(39, 161, 197);">
<rect width="100" height="100"/>
</g></g><g transform="translate(640,200) scale(2.8571428571429,2.8571428571429)"><g transform="" style="fill: rgb(39, 161, 197);">
    <path d="M14,14H0c0,0,4.38-9.15,0.55-14C0.55,0,14-0.24,14,14z"/>
</g></g><g transform="translate(320,240) scale(2.8571428571429,2.8571428571429)"><g transform="" style="fill: rgb(39, 161, 197);">
    <path d="M-0.001,0l14,0c0,0-4.381,9.151-0.551,14C13.448,14-0.001,14.24-0.001,0z"/>
</g></g><g transform="translate(400,240) scale(2.8571428571429,2.8571428571429)"><g transform="" style="fill: rgb(39, 161, 197);">
    <path d="M14,14H0c0,0,4.38-9.15,0.55-14C0.55,0,14-0.24,14,14z"/>
</g></g><g transform="translate(480,240) scale(2.8571428571429,2.8571428571429)"><g transform="" style="fill: rgb(39, 161, 197);">
    <path d="M-0.001,0l14,0c0,0-4.381,9.151-0.551,14C13.448,14-0.001,14.24-0.001,0z"/>
</g></g><g transform="translate(560,240) scale(2.8571428571429,2.8571428571429)"><g transform="" style="fill: rgb(39, 161, 197);">
    <path d="M-0.001,0l14,0c0,0-4.381,9.151-0.551,14C13.448,14-0.001,14.24-0.001,0z"/>
</g></g><g transform="translate(640,240) scale(0.4,0.4)"><g transform="" style="fill: rgb(39, 161, 197);">
<rect width="100" height="100"/>
</g></g><g transform="translate(360,280) scale(2.8571428571429,2.8571428571429)"><g transform="" style="fill: rgb(39, 161, 197);">
    <path d="M13.999,0v14c0,0-9.151-4.381-14-0.551C-0.001,13.449-0.242,0,13.999,0z"/>
</g></g><g transform="translate(400,280) scale(2.8571428571429,2.8571428571429)"><g transform="" style="fill: rgb(39, 161, 197);">
    <path d="M0,14V0h13.971H14v3.43C14,9.27,7.732,14,0,14z"/>
</g></g><g transform="translate(640,280) scale(2.8571428571429,2.8571428571429)"><g transform="" style="fill: rgb(39, 161, 197);">
    <path d="M-0.001,0l14,0c0,0-4.381,9.151-0.551,14C13.448,14-0.001,14.24-0.001,0z"/>
</g></g><g transform="translate(0,320) scale(2.8571428571429,2.8571428571429)"><g transform="" style="fill: rgb(39, 161, 197);">
    <path d="M14,14H0c0,0,4.38-9.15,0.55-14C0.55,0,14-0.24,14,14z"/>
</g></g><g transform="translate(80,320) scale(2.8571428571429,2.8571428571429)"><g transform="" style="fill: rgb(39, 161, 197);">
    <path d="M14,14H0c0,0,4.38-9.15,0.55-14C0.55,0,14-0.24,14,14z"/>
</g></g><g transform="translate(240,320) scale(2.8571428571429,2.8571428571429)"><g transform="" style="fill: rgb(39, 161, 197);">
    <path d="M13.999,0v14c0,0-9.151-4.381-14-0.551C-0.001,13.449-0.242,0,13.999,0z"/>
</g></g><g transform="translate(280,320) scale(2.8571428571429,2.8571428571429)"><g transform="" style="fill: rgb(39, 161, 197);">
    <path d="M0,14V0c0,0,9.15,4.38,14,0.55C14,0.55,14.24,14,0,14z"/>
</g></g><g transform="translate(440,320) scale(2.8571428571429,2.8571428571429)"><g transform="" style="fill: rgb(39, 161, 197);">
    <path d="M13.999,0v14c0,0-9.151-4.381-14-0.551C-0.001,13.449-0.242,0,13.999,0z"/>
</g></g><g transform="translate(480,320) scale(2.8571428571429,2.8571428571429)"><g transform="" style="fill: rgb(39, 161, 197);">
    <path d="M13.999,13.999H0V0.028v-0.029h3.43C9.269-0.001,13.999,6.267,13.999,13.999z"/>
</g></g><g transform="translate(600,320) scale(2.8571428571429,2.8571428571429)"><g transform="" style="fill: rgb(39, 161, 197);">
    <path d="M14,14H0c0,0,4.38-9.15,0.55-14C0.55,0,14-0.24,14,14z"/>
</g></g><g transform="translate(760,320) scale(2.8571428571429,2.8571428571429)"><g transform="" style="fill: rgb(39, 161, 197);">
    <path d="M14,14H0c0,0,4.38-9.15,0.55-14C0.55,0,14-0.24,14,14z"/>
</g></g><g transform="translate(880,320) scale(0.08,0.08)"><g transform="" style="fill: rgb(39, 161, 197);">
<path d="M250,0c138.077,0,250,111.93,250,250c0,138.077-111.923,250-250,250C111.93,500,0,388.077,0,250C0,111.93,111.93,0,250,0z"
	/>
</g></g><g transform="translate(960,320) scale(2.8571428571429,2.8571428571429)"><g transform="" style="fill: rgb(39, 161, 197);">
    <path d="M14,14H0c0,0,4.38-9.15,0.55-14C0.55,0,14-0.24,14,14z"/>
</g></g><g transform="translate(0,360) scale(2.8571428571429,2.8571428571429)"><g transform="" style="fill: rgb(39, 161, 197);">
    <path d="M-0.001,0l14,0c0,0-4.381,9.151-0.551,14C13.448,14-0.001,14.24-0.001,0z"/>
</g></g><g transform="translate(80,360) scale(0.4,0.4)"><g transform="" style="fill: rgb(39, 161, 197);">
<rect width="100" height="100"/>
</g></g><g transform="translate(120,360) scale(2.8571428571429,2.8571428571429)"><g transform="" style="fill: rgb(39, 161, 197);">
    <path d="M13.999,13.999H0V0.028v-0.029h3.43C9.269-0.001,13.999,6.267,13.999,13.999z"/>
</g></g><g transform="translate(360,360) scale(2.8571428571429,2.8571428571429)"><g transform="" style="fill: rgb(39, 161, 197);">
    <path d="M14,14H0c0,0,4.38-9.15,0.55-14C0.55,0,14-0.24,14,14z"/>
</g></g><g transform="translate(480,360) scale(0.4,0.4)"><g transform="" style="fill: rgb(39, 161, 197);">
<rect width="100" height="100"/>
</g></g><g transform="translate(600,360) scale(0.4,0.4)"><g transform="" style="fill: rgb(39, 161, 197);">
<rect width="100" height="100"/>
</g></g><g transform="translate(640,360) scale(2.8571428571429,2.8571428571429)"><g transform="" style="fill: rgb(39, 161, 197);">
    <path d="M0,14V0c0,0,9.15,4.38,14,0.55C14,0.55,14.24,14,0,14z"/>
</g></g><g transform="translate(720,360) scale(2.8571428571429,2.8571428571429)"><g transform="" style="fill: rgb(39, 161, 197);">
    <path d="M13.999-0.001v14H0.029H0v-3.431C0,4.729,6.267-0.001,13.999-0.001z"/>
</g></g><g transform="translate(760,360) scale(2.8571428571429,2.8571428571429)"><g transform="" style="fill: rgb(39, 161, 197);">
    <path d="M0,14V0h13.971H14v3.43C14,9.27,7.732,14,0,14z"/>
</g></g><g transform="translate(840,360) scale(2.8571428571429,2.8571428571429)"><g transform="" style="fill: rgb(39, 161, 197);">
    <path d="M14,14H0c0,0,4.38-9.15,0.55-14C0.55,0,14-0.24,14,14z"/>
</g></g><g transform="translate(920,360) scale(2.8571428571429,2.8571428571429)"><g transform="" style="fill: rgb(39, 161, 197);">
    <path d="M13.999,0v14c0,0-9.151-4.381-14-0.551C-0.001,13.449-0.242,0,13.999,0z"/>
</g></g><g transform="translate(960,360) scale(0.4,0.4)"><g transform="" style="fill: rgb(39, 161, 197);">
<rect width="100" height="100"/>
</g></g><g transform="translate(40,400) scale(2.8571428571429,2.8571428571429)"><g transform="" style="fill: rgb(39, 161, 197);">
    <path d="M13.999,0v14c0,0-9.151-4.381-14-0.551C-0.001,13.449-0.242,0,13.999,0z"/>
</g></g><g transform="translate(80,400) scale(0.4,0.4)"><g transform="" style="fill: rgb(39, 161, 197);">
<rect width="100" height="100"/>
</g></g><g transform="translate(120,400) scale(0.4,0.4)"><g transform="" style="fill: rgb(39, 161, 197);">
<rect width="100" height="100"/>
</g></g><g transform="translate(160,400) scale(2.8571428571429,2.8571428571429)"><g transform="" style="fill: rgb(39, 161, 197);">
    <path d="M13.999,13.999H0V0.028v-0.029h3.43C9.269-0.001,13.999,6.267,13.999,13.999z"/>
</g></g><g transform="translate(240,400) scale(0.08,0.08)"><g transform="" style="fill: rgb(39, 161, 197);">
<path d="M250,0c138.077,0,250,111.93,250,250c0,138.077-111.923,250-250,250C111.93,500,0,388.077,0,250C0,111.93,111.93,0,250,0z"
	/>
</g></g><g transform="translate(360,400) scale(0.4,0.4)"><g transform="" style="fill: rgb(39, 161, 197);">
<rect width="100" height="100"/>
</g></g><g transform="translate(440,400) scale(2.8571428571429,2.8571428571429)"><g transform="" style="fill: rgb(39, 161, 197);">
    <path d="M13.999-0.001v14H0.029H0v-3.431C0,4.729,6.267-0.001,13.999-0.001z"/>
</g></g><g transform="translate(480,400) scale(0.4,0.4)"><g transform="" style="fill: rgb(39, 161, 197);">
<rect width="100" height="100"/>
</g></g><g transform="translate(560,400) scale(2.8571428571429,2.8571428571429)"><g transform="" style="fill: rgb(39, 161, 197);">
    <path d="M13.999-0.001v14H0.029H0v-3.431C0,4.729,6.267-0.001,13.999-0.001z"/>
</g></g><g transform="translate(600,400) scale(2.8571428571429,2.8571428571429)"><g transform="" style="fill: rgb(39, 161, 197);">
    <path d="M0,14V0h13.971H14v3.43C14,9.27,7.732,14,0,14z"/>
</g></g><g transform="translate(680,400) scale(2.8571428571429,2.8571428571429)"><g transform="" style="fill: rgb(39, 161, 197);">
    <path d="M13.999-0.001v14H0.029H0v-3.431C0,4.729,6.267-0.001,13.999-0.001z"/>
</g></g><g transform="translate(720,400) scale(0.4,0.4)"><g transform="" style="fill: rgb(39, 161, 197);">
<rect width="100" height="100"/>
</g></g><g transform="translate(800,400) scale(2.8571428571429,2.8571428571429)"><g transform="" style="fill: rgb(39, 161, 197);">
    <path d="M13.999,0v14c0,0-9.151-4.381-14-0.551C-0.001,13.449-0.242,0,13.999,0z"/>
</g></g><g transform="translate(840,400) scale(0.4,0.4)"><g transform="" style="fill: rgb(39, 161, 197);">
<rect width="100" height="100"/>
</g></g><g transform="translate(880,400) scale(2.8571428571429,2.8571428571429)"><g transform="" style="fill: rgb(39, 161, 197);">
    <path d="M0,14V0c0,0,9.15,4.38,14,0.55C14,0.55,14.24,14,0,14z"/>
</g></g><g transform="translate(960,400) scale(2.8571428571429,2.8571428571429)"><g transform="" style="fill: rgb(39, 161, 197);">
    <path d="M-0.001,0l14,0c0,0-4.381,9.151-0.551,14C13.448,14-0.001,14.24-0.001,0z"/>
</g></g><g transform="translate(0,440) scale(2.8571428571429,2.8571428571429)"><g transform="" style="fill: rgb(39, 161, 197);">
    <path d="M14,14H0c0,0,4.38-9.15,0.55-14C0.55,0,14-0.24,14,14z"/>
</g></g><g transform="translate(120,440) scale(2.8571428571429,2.8571428571429)"><g transform="" style="fill: rgb(39, 161, 197);">
        <path d="M0-0.001h14v13.97v0.029l-3.431,0.001C4.731,13.999,0,7.731,0-0.001z"/>
</g></g><g transform="translate(160,440) scale(0.4,0.4)"><g transform="" style="fill: rgb(39, 161, 197);">
<rect width="100" height="100"/>
</g></g><g transform="translate(280,440) scale(2.8571428571429,2.8571428571429)"><g transform="" style="fill: rgb(39, 161, 197);">
    <path d="M13.999,0v14c0,0-9.151-4.381-14-0.551C-0.001,13.449-0.242,0,13.999,0z"/>
</g></g><g transform="translate(320,440) scale(0.4,0.4)"><g transform="" style="fill: rgb(39, 161, 197);">
<rect width="100" height="100"/>
</g></g><g transform="translate(360,440) scale(0.4,0.4)"><g transform="" style="fill: rgb(39, 161, 197);">
<rect width="100" height="100"/>
</g></g><g transform="translate(440,440) scale(2.8571428571429,2.8571428571429)"><g transform="" style="fill: rgb(39, 161, 197);">
        <path d="M0-0.001h14v13.97v0.029l-3.431,0.001C4.731,13.999,0,7.731,0-0.001z"/>
</g></g><g transform="translate(480,440) scale(0.4,0.4)"><g transform="" style="fill: rgb(39, 161, 197);">
<rect width="100" height="100"/>
</g></g><g transform="translate(560,440) scale(2.8571428571429,2.8571428571429)"><g transform="" style="fill: rgb(39, 161, 197);">
    <path d="M-0.001,0l14,0c0,0-4.381,9.151-0.551,14C13.448,14-0.001,14.24-0.001,0z"/>
</g></g><g transform="translate(640,440) scale(2.8571428571429,2.8571428571429)"><g transform="" style="fill: rgb(39, 161, 197);">
    <path d="M13.999-0.001v14H0.029H0v-3.431C0,4.729,6.267-0.001,13.999-0.001z"/>
</g></g><g transform="translate(680,440) scale(0.4,0.4)"><g transform="" style="fill: rgb(39, 161, 197);">
<rect width="100" height="100"/>
</g></g><g transform="translate(720,440) scale(0.4,0.4)"><g transform="" style="fill: rgb(39, 161, 197);">
<rect width="100" height="100"/>
</g></g><g transform="translate(760,440) scale(2.8571428571429,2.8571428571429)"><g transform="" style="fill: rgb(39, 161, 197);">
    <path d="M13.999,13.999H0V0.028v-0.029h3.43C9.269-0.001,13.999,6.267,13.999,13.999z"/>
</g></g><g transform="translate(840,440) scale(2.8571428571429,2.8571428571429)"><g transform="" style="fill: rgb(39, 161, 197);">
    <path d="M-0.001,0l14,0c0,0-4.381,9.151-0.551,14C13.448,14-0.001,14.24-0.001,0z"/>
</g></g><g transform="translate(0,480) scale(2.8571428571429,2.8571428571429)"><g transform="" style="fill: rgb(39, 161, 197);">
        <path d="M0-0.001h14v13.97v0.029l-3.431,0.001C4.731,13.999,0,7.731,0-0.001z"/>
</g></g><g transform="translate(40,480) scale(2.8571428571429,2.8571428571429)"><g transform="" style="fill: rgb(39, 161, 197);">
    <path d="M0,14V0c0,0,9.15,4.38,14,0.55C14,0.55,14.24,14,0,14z"/>
</g></g><g transform="translate(160,480) scale(2.8571428571429,2.8571428571429)"><g transform="" style="fill: rgb(39, 161, 197);">
        <path d="M0-0.001h14v13.97v0.029l-3.431,0.001C4.731,13.999,0,7.731,0-0.001z"/>
</g></g><g transform="translate(200,480) scale(0.4,0.4)"><g transform="" style="fill: rgb(39, 161, 197);">
<rect width="100" height="100"/>
</g></g><g transform="translate(240,480) scale(2.8571428571429,2.8571428571429)"><g transform="" style="fill: rgb(39, 161, 197);">
    <path d="M0,14V0c0,0,9.15,4.38,14,0.55C14,0.55,14.24,14,0,14z"/>
</g></g><g transform="translate(320,480) scale(2.8571428571429,2.8571428571429)"><g transform="" style="fill: rgb(39, 161, 197);">
        <path d="M0-0.001h14v13.97v0.029l-3.431,0.001C4.731,13.999,0,7.731,0-0.001z"/>
</g></g><g transform="translate(360,480) scale(0.4,0.4)"><g transform="" style="fill: rgb(39, 161, 197);">
<rect width="100" height="100"/>
</g></g><g transform="translate(400,480) scale(2.8571428571429,2.8571428571429)"><g transform="" style="fill: rgb(39, 161, 197);">
    <path d="M13.999,13.999H0V0.028v-0.029h3.43C9.269-0.001,13.999,6.267,13.999,13.999z"/>
</g></g><g transform="translate(480,480) scale(0.4,0.4)"><g transform="" style="fill: rgb(39, 161, 197);">
<rect width="100" height="100"/>
</g></g><g transform="translate(640,480) scale(0.4,0.4)"><g transform="" style="fill: rgb(39, 161, 197);">
<rect width="100" height="100"/>
</g></g><g transform="translate(720,480) scale(0.4,0.4)"><g transform="" style="fill: rgb(39, 161, 197);">
<rect width="100" height="100"/>
</g></g><g transform="translate(760,480) scale(0.4,0.4)"><g transform="" style="fill: rgb(39, 161, 197);">
<rect width="100" height="100"/>
</g></g><g transform="translate(960,480) scale(2.8571428571429,2.8571428571429)"><g transform="" style="fill: rgb(39, 161, 197);">
    <path d="M14,14H0c0,0,4.38-9.15,0.55-14C0.55,0,14-0.24,14,14z"/>
</g></g><g transform="translate(400,520) scale(2.8571428571429,2.8571428571429)"><g transform="" style="fill: rgb(39, 161, 197);">
    <path d="M-0.001,0l14,0c0,0-4.381,9.151-0.551,14C13.448,14-0.001,14.24-0.001,0z"/>
</g></g><g transform="translate(480,520) scale(0.4,0.4)"><g transform="" style="fill: rgb(39, 161, 197);">
<rect width="100" height="100"/>
</g></g><g transform="translate(600,520) scale(2.8571428571429,2.8571428571429)"><g transform="" style="fill: rgb(39, 161, 197);">
    <path d="M13.999-0.001v14H0.029H0v-3.431C0,4.729,6.267-0.001,13.999-0.001z"/>
</g></g><g transform="translate(640,520) scale(0.4,0.4)"><g transform="" style="fill: rgb(39, 161, 197);">
<rect width="100" height="100"/>
</g></g><g transform="translate(720,520) scale(2.8571428571429,2.8571428571429)"><g transform="" style="fill: rgb(39, 161, 197);">
        <path d="M0-0.001h14v13.97v0.029l-3.431,0.001C4.731,13.999,0,7.731,0-0.001z"/>
</g></g><g transform="translate(760,520) scale(0.4,0.4)"><g transform="" style="fill: rgb(39, 161, 197);">
<rect width="100" height="100"/>
</g></g><g transform="translate(920,520) scale(2.8571428571429,2.8571428571429)"><g transform="" style="fill: rgb(39, 161, 197);">
    <path d="M13.999,0v14c0,0-9.151-4.381-14-0.551C-0.001,13.449-0.242,0,13.999,0z"/>
</g></g><g transform="translate(960,520) scale(0.4,0.4)"><g transform="" style="fill: rgb(39, 161, 197);">
<rect width="100" height="100"/>
</g></g><g transform="translate(0,560) scale(2.8571428571429,2.8571428571429)"><g transform="" style="fill: rgb(39, 161, 197);">
    <path d="M13.999,0v14c0,0-9.151-4.381-14-0.551C-0.001,13.449-0.242,0,13.999,0z"/>
</g></g><g transform="translate(40,560) scale(2.8571428571429,2.8571428571429)"><g transform="" style="fill: rgb(39, 161, 197);">
    <path d="M0,14V0c0,0,9.15,4.38,14,0.55C14,0.55,14.24,14,0,14z"/>
</g></g><g transform="translate(120,560) scale(2.8571428571429,2.8571428571429)"><g transform="" style="fill: rgb(39, 161, 197);">
    <path d="M13.999,0v14c0,0-9.151-4.381-14-0.551C-0.001,13.449-0.242,0,13.999,0z"/>
</g></g><g transform="translate(160,560) scale(0.4,0.4)"><g transform="" style="fill: rgb(39, 161, 197);">
<rect width="100" height="100"/>
</g></g><g transform="translate(200,560) scale(0.4,0.4)"><g transform="" style="fill: rgb(39, 161, 197);">
<rect width="100" height="100"/>
</g></g><g transform="translate(240,560) scale(2.8571428571429,2.8571428571429)"><g transform="" style="fill: rgb(39, 161, 197);">
    <path d="M0,14V0c0,0,9.15,4.38,14,0.55C14,0.55,14.24,14,0,14z"/>
</g></g><g transform="translate(480,560) scale(0.4,0.4)"><g transform="" style="fill: rgb(39, 161, 197);">
<rect width="100" height="100"/>
</g></g><g transform="translate(560,560) scale(2.8571428571429,2.8571428571429)"><g transform="" style="fill: rgb(39, 161, 197);">
    <path d="M13.999-0.001v14H0.029H0v-3.431C0,4.729,6.267-0.001,13.999-0.001z"/>
</g></g><g transform="translate(600,560) scale(0.4,0.4)"><g transform="" style="fill: rgb(39, 161, 197);">
<rect width="100" height="100"/>
</g></g><g transform="translate(640,560) scale(0.4,0.4)"><g transform="" style="fill: rgb(39, 161, 197);">
<rect width="100" height="100"/>
</g></g><g transform="translate(680,560) scale(2.8571428571429,2.8571428571429)"><g transform="" style="fill: rgb(39, 161, 197);">
    <path d="M0,14V0c0,0,9.15,4.38,14,0.55C14,0.55,14.24,14,0,14z"/>
</g></g><g transform="translate(760,560) scale(0.4,0.4)"><g transform="" style="fill: rgb(39, 161, 197);">
<rect width="100" height="100"/>
</g></g><g transform="translate(800,560) scale(0.4,0.4)"><g transform="" style="fill: rgb(39, 161, 197);">
<rect width="100" height="100"/>
</g></g><g transform="translate(840,560) scale(0.4,0.4)"><g transform="" style="fill: rgb(39, 161, 197);">
<rect width="100" height="100"/>
</g></g><g transform="translate(880,560) scale(2.8571428571429,2.8571428571429)"><g transform="" style="fill: rgb(39, 161, 197);">
    <path d="M0,14V0c0,0,9.15,4.38,14,0.55C14,0.55,14.24,14,0,14z"/>
</g></g><g transform="translate(960,560) scale(2.8571428571429,2.8571428571429)"><g transform="" style="fill: rgb(39, 161, 197);">
    <path d="M-0.001,0l14,0c0,0-4.381,9.151-0.551,14C13.448,14-0.001,14.24-0.001,0z"/>
</g></g><g transform="translate(80,600) scale(0.08,0.08)"><g transform="" style="fill: rgb(39, 161, 197);">
<path d="M250,0c138.077,0,250,111.93,250,250c0,138.077-111.923,250-250,250C111.93,500,0,388.077,0,250C0,111.93,111.93,0,250,0z"
	/>
</g></g><g transform="translate(200,600) scale(0.4,0.4)"><g transform="" style="fill: rgb(39, 161, 197);">
<rect width="100" height="100"/>
</g></g><g transform="translate(280,600) scale(2.8571428571429,2.8571428571429)"><g transform="" style="fill: rgb(39, 161, 197);">
    <path d="M13.999,0v14c0,0-9.151-4.381-14-0.551C-0.001,13.449-0.242,0,13.999,0z"/>
</g></g><g transform="translate(320,600) scale(2.8571428571429,2.8571428571429)"><g transform="" style="fill: rgb(39, 161, 197);">
    <path d="M13.999,13.999H0V0.028v-0.029h3.43C9.269-0.001,13.999,6.267,13.999,13.999z"/>
</g></g><g transform="translate(440,600) scale(2.8571428571429,2.8571428571429)"><g transform="" style="fill: rgb(39, 161, 197);">
    <path d="M13.999,0v14c0,0-9.151-4.381-14-0.551C-0.001,13.449-0.242,0,13.999,0z"/>
</g></g><g transform="translate(480,600) scale(2.8571428571429,2.8571428571429)"><g transform="" style="fill: rgb(39, 161, 197);">
    <path d="M0,14V0h13.971H14v3.43C14,9.27,7.732,14,0,14z"/>
</g></g><g transform="translate(560,600) scale(0.4,0.4)"><g transform="" style="fill: rgb(39, 161, 197);">
<rect width="100" height="100"/>
</g></g><g transform="translate(600,600) scale(0.4,0.4)"><g transform="" style="fill: rgb(39, 161, 197);">
<rect width="100" height="100"/>
</g></g><g transform="translate(760,600) scale(0.4,0.4)"><g transform="" style="fill: rgb(39, 161, 197);">
<rect width="100" height="100"/>
</g></g><g transform="translate(0,640) scale(2.8571428571429,2.8571428571429)"><g transform="" style="fill: rgb(39, 161, 197);">
    <path d="M13.999,0v14c0,0-9.151-4.381-14-0.551C-0.001,13.449-0.242,0,13.999,0z"/>
</g></g><g transform="translate(40,640) scale(2.8571428571429,2.8571428571429)"><g transform="" style="fill: rgb(39, 161, 197);">
    <path d="M0,14V0c0,0,9.15,4.38,14,0.55C14,0.55,14.24,14,0,14z"/>
</g></g><g transform="translate(160,640) scale(2.8571428571429,2.8571428571429)"><g transform="" style="fill: rgb(39, 161, 197);">
    <path d="M13.999,0v14c0,0-9.151-4.381-14-0.551C-0.001,13.449-0.242,0,13.999,0z"/>
</g></g><g transform="translate(200,640) scale(0.4,0.4)"><g transform="" style="fill: rgb(39, 161, 197);">
<rect width="100" height="100"/>
</g></g><g transform="translate(240,640) scale(2.8571428571429,2.8571428571429)"><g transform="" style="fill: rgb(39, 161, 197);">
    <path d="M0,14V0c0,0,9.15,4.38,14,0.55C14,0.55,14.24,14,0,14z"/>
</g></g><g transform="translate(320,640) scale(0.4,0.4)"><g transform="" style="fill: rgb(39, 161, 197);">
<rect width="100" height="100"/>
</g></g><g transform="translate(400,640) scale(2.8571428571429,2.8571428571429)"><g transform="" style="fill: rgb(39, 161, 197);">
    <path d="M14,14H0c0,0,4.38-9.15,0.55-14C0.55,0,14-0.24,14,14z"/>
</g></g><g transform="translate(520,640) scale(2.8571428571429,2.8571428571429)"><g transform="" style="fill: rgb(39, 161, 197);">
    <path d="M13.999-0.001v14H0.029H0v-3.431C0,4.729,6.267-0.001,13.999-0.001z"/>
</g></g><g transform="translate(560,640) scale(0.4,0.4)"><g transform="" style="fill: rgb(39, 161, 197);">
<rect width="100" height="100"/>
</g></g><g transform="translate(600,640) scale(0.4,0.4)"><g transform="" style="fill: rgb(39, 161, 197);">
<rect width="100" height="100"/>
</g></g><g transform="translate(640,640) scale(0.4,0.4)"><g transform="" style="fill: rgb(39, 161, 197);">
<rect width="100" height="100"/>
</g></g><g transform="translate(680,640) scale(0.4,0.4)"><g transform="" style="fill: rgb(39, 161, 197);">
<rect width="100" height="100"/>
</g></g><g transform="translate(720,640) scale(0.4,0.4)"><g transform="" style="fill: rgb(39, 161, 197);">
<rect width="100" height="100"/>
</g></g><g transform="translate(760,640) scale(0.4,0.4)"><g transform="" style="fill: rgb(39, 161, 197);">
<rect width="100" height="100"/>
</g></g><g transform="translate(800,640) scale(2.8571428571429,2.8571428571429)"><g transform="" style="fill: rgb(39, 161, 197);">
    <path d="M13.999,13.999H0V0.028v-0.029h3.43C9.269-0.001,13.999,6.267,13.999,13.999z"/>
</g></g><g transform="translate(920,640) scale(0.08,0.08)"><g transform="" style="fill: rgb(39, 161, 197);">
<path d="M250,0c138.077,0,250,111.93,250,250c0,138.077-111.923,250-250,250C111.93,500,0,388.077,0,250C0,111.93,111.93,0,250,0z"
	/>
</g></g><g transform="translate(320,680) scale(0.4,0.4)"><g transform="" style="fill: rgb(39, 161, 197);">
<rect width="100" height="100"/>
</g></g><g transform="translate(400,680) scale(2.8571428571429,2.8571428571429)"><g transform="" style="fill: rgb(39, 161, 197);">
    <path d="M-0.001,0l14,0c0,0-4.381,9.151-0.551,14C13.448,14-0.001,14.24-0.001,0z"/>
</g></g><g transform="translate(520,680) scale(2.8571428571429,2.8571428571429)"><g transform="" style="fill: rgb(39, 161, 197);">
    <path d="M-0.001,0l14,0c0,0-4.381,9.151-0.551,14C13.448,14-0.001,14.24-0.001,0z"/>
</g></g><g transform="translate(600,680) scale(2.8571428571429,2.8571428571429)"><g transform="" style="fill: rgb(39, 161, 197);">
        <path d="M0-0.001h14v13.97v0.029l-3.431,0.001C4.731,13.999,0,7.731,0-0.001z"/>
</g></g><g transform="translate(640,680) scale(0.4,0.4)"><g transform="" style="fill: rgb(39, 161, 197);">
<rect width="100" height="100"/>
</g></g><g transform="translate(800,680) scale(0.4,0.4)"><g transform="" style="fill: rgb(39, 161, 197);">
<rect width="100" height="100"/>
</g></g><g transform="translate(880,680) scale(0.08,0.08)"><g transform="" style="fill: rgb(39, 161, 197);">
<path d="M250,0c138.077,0,250,111.93,250,250c0,138.077-111.923,250-250,250C111.93,500,0,388.077,0,250C0,111.93,111.93,0,250,0z"
	/>
</g></g><g transform="translate(960,680) scale(2.8571428571429,2.8571428571429)"><g transform="" style="fill: rgb(39, 161, 197);">
    <path d="M14,14H0c0,0,4.38-9.15,0.55-14C0.55,0,14-0.24,14,14z"/>
</g></g><g transform="translate(320,720) scale(2.8571428571429,2.8571428571429)"><g transform="" style="fill: rgb(39, 161, 197);">
        <path d="M0-0.001h14v13.97v0.029l-3.431,0.001C4.731,13.999,0,7.731,0-0.001z"/>
</g></g><g transform="translate(360,720) scale(2.8571428571429,2.8571428571429)"><g transform="" style="fill: rgb(39, 161, 197);">
    <path d="M0,14V0c0,0,9.15,4.38,14,0.55C14,0.55,14.24,14,0,14z"/>
</g></g><g transform="translate(440,720) scale(0.08,0.08)"><g transform="" style="fill: rgb(39, 161, 197);">
<path d="M250,0c138.077,0,250,111.93,250,250c0,138.077-111.923,250-250,250C111.93,500,0,388.077,0,250C0,111.93,111.93,0,250,0z"
	/>
</g></g><g transform="translate(640,720) scale(0.4,0.4)"><g transform="" style="fill: rgb(39, 161, 197);">
<rect width="100" height="100"/>
</g></g><g transform="translate(720,720) scale(0.08,0.08)"><g transform="" style="fill: rgb(39, 161, 197);">
<path d="M250,0c138.077,0,250,111.93,250,250c0,138.077-111.923,250-250,250C111.93,500,0,388.077,0,250C0,111.93,111.93,0,250,0z"
	/>
</g></g><g transform="translate(800,720) scale(0.4,0.4)"><g transform="" style="fill: rgb(39, 161, 197);">
<rect width="100" height="100"/>
</g></g><g transform="translate(840,720) scale(2.8571428571429,2.8571428571429)"><g transform="" style="fill: rgb(39, 161, 197);">
    <path d="M0,14V0c0,0,9.15,4.38,14,0.55C14,0.55,14.24,14,0,14z"/>
</g></g><g transform="translate(960,720) scale(2.8571428571429,2.8571428571429)"><g transform="" style="fill: rgb(39, 161, 197);">
    <path d="M-0.001,0l14,0c0,0-4.381,9.151-0.551,14C13.448,14-0.001,14.24-0.001,0z"/>
</g></g><g transform="translate(400,760) scale(2.8571428571429,2.8571428571429)"><g transform="" style="fill: rgb(39, 161, 197);">
    <path d="M14,14H0c0,0,4.38-9.15,0.55-14C0.55,0,14-0.24,14,14z"/>
</g></g><g transform="translate(520,760) scale(2.8571428571429,2.8571428571429)"><g transform="" style="fill: rgb(39, 161, 197);">
    <path d="M14,14H0c0,0,4.38-9.15,0.55-14C0.55,0,14-0.24,14,14z"/>
</g></g><g transform="translate(600,760) scale(2.8571428571429,2.8571428571429)"><g transform="" style="fill: rgb(39, 161, 197);">
    <path d="M13.999-0.001v14H0.029H0v-3.431C0,4.729,6.267-0.001,13.999-0.001z"/>
</g></g><g transform="translate(640,760) scale(0.4,0.4)"><g transform="" style="fill: rgb(39, 161, 197);">
<rect width="100" height="100"/>
</g></g><g transform="translate(800,760) scale(0.4,0.4)"><g transform="" style="fill: rgb(39, 161, 197);">
<rect width="100" height="100"/>
</g></g><g transform="translate(920,760) scale(0.08,0.08)"><g transform="" style="fill: rgb(39, 161, 197);">
<path d="M250,0c138.077,0,250,111.93,250,250c0,138.077-111.923,250-250,250C111.93,500,0,388.077,0,250C0,111.93,111.93,0,250,0z"
	/>
</g></g><g transform="translate(400,800) scale(2.8571428571429,2.8571428571429)"><g transform="" style="fill: rgb(39, 161, 197);">
        <path d="M0-0.001h14v13.97v0.029l-3.431,0.001C4.731,13.999,0,7.731,0-0.001z"/>
</g></g><g transform="translate(440,800) scale(0.4,0.4)"><g transform="" style="fill: rgb(39, 161, 197);">
<rect width="100" height="100"/>
</g></g><g transform="translate(480,800) scale(0.4,0.4)"><g transform="" style="fill: rgb(39, 161, 197);">
<rect width="100" height="100"/>
</g></g><g transform="translate(520,800) scale(2.8571428571429,2.8571428571429)"><g transform="" style="fill: rgb(39, 161, 197);">
    <path d="M0,14V0h13.971H14v3.43C14,9.27,7.732,14,0,14z"/>
</g></g><g transform="translate(600,800) scale(0.4,0.4)"><g transform="" style="fill: rgb(39, 161, 197);">
<rect width="100" height="100"/>
</g></g><g transform="translate(640,800) scale(0.4,0.4)"><g transform="" style="fill: rgb(39, 161, 197);">
<rect width="100" height="100"/>
</g></g><g transform="translate(680,800) scale(0.4,0.4)"><g transform="" style="fill: rgb(39, 161, 197);">
<rect width="100" height="100"/>
</g></g><g transform="translate(720,800) scale(0.4,0.4)"><g transform="" style="fill: rgb(39, 161, 197);">
<rect width="100" height="100"/>
</g></g><g transform="translate(760,800) scale(0.4,0.4)"><g transform="" style="fill: rgb(39, 161, 197);">
<rect width="100" height="100"/>
</g></g><g transform="translate(800,800) scale(0.4,0.4)"><g transform="" style="fill: rgb(39, 161, 197);">
<rect width="100" height="100"/>
</g></g><g transform="translate(840,800) scale(2.8571428571429,2.8571428571429)"><g transform="" style="fill: rgb(39, 161, 197);">
    <path d="M13.999,13.999H0V0.028v-0.029h3.43C9.269-0.001,13.999,6.267,13.999,13.999z"/>
</g></g><g transform="translate(960,800) scale(0.08,0.08)"><g transform="" style="fill: rgb(39, 161, 197);">
<path d="M250,0c138.077,0,250,111.93,250,250c0,138.077-111.923,250-250,250C111.93,500,0,388.077,0,250C0,111.93,111.93,0,250,0z"
	/>
</g></g><g transform="translate(480,840) scale(0.4,0.4)"><g transform="" style="fill: rgb(39, 161, 197);">
<rect width="100" height="100"/>
</g></g><g transform="translate(600,840) scale(2.8571428571429,2.8571428571429)"><g transform="" style="fill: rgb(39, 161, 197);">
        <path d="M0-0.001h14v13.97v0.029l-3.431,0.001C4.731,13.999,0,7.731,0-0.001z"/>
</g></g><g transform="translate(640,840) scale(0.4,0.4)"><g transform="" style="fill: rgb(39, 161, 197);">
<rect width="100" height="100"/>
</g></g><g transform="translate(680,840) scale(0.4,0.4)"><g transform="" style="fill: rgb(39, 161, 197);">
<rect width="100" height="100"/>
</g></g><g transform="translate(760,840) scale(2.8571428571429,2.8571428571429)"><g transform="" style="fill: rgb(39, 161, 197);">
        <path d="M0-0.001h14v13.97v0.029l-3.431,0.001C4.731,13.999,0,7.731,0-0.001z"/>
</g></g><g transform="translate(800,840) scale(0.4,0.4)"><g transform="" style="fill: rgb(39, 161, 197);">
<rect width="100" height="100"/>
</g></g><g transform="translate(840,840) scale(0.4,0.4)"><g transform="" style="fill: rgb(39, 161, 197);">
<rect width="100" height="100"/>
</g></g><g transform="translate(880,840) scale(0.4,0.4)"><g transform="" style="fill: rgb(39, 161, 197);">
<rect width="100" height="100"/>
</g></g><g transform="translate(920,840) scale(2.8571428571429,2.8571428571429)"><g transform="" style="fill: rgb(39, 161, 197);">
    <path d="M13.999,13.999H0V0.028v-0.029h3.43C9.269-0.001,13.999,6.267,13.999,13.999z"/>
</g></g><g transform="translate(320,880) scale(2.8571428571429,2.8571428571429)"><g transform="" style="fill: rgb(39, 161, 197);">
    <path d="M13.999,0v14c0,0-9.151-4.381-14-0.551C-0.001,13.449-0.242,0,13.999,0z"/>
</g></g><g transform="translate(360,880) scale(2.8571428571429,2.8571428571429)"><g transform="" style="fill: rgb(39, 161, 197);">
    <path d="M0,14V0c0,0,9.15,4.38,14,0.55C14,0.55,14.24,14,0,14z"/>
</g></g><g transform="translate(480,880) scale(0.4,0.4)"><g transform="" style="fill: rgb(39, 161, 197);">
<rect width="100" height="100"/>
</g></g><g transform="translate(520,880) scale(0.4,0.4)"><g transform="" style="fill: rgb(39, 161, 197);">
<rect width="100" height="100"/>
</g></g><g transform="translate(560,880) scale(2.8571428571429,2.8571428571429)"><g transform="" style="fill: rgb(39, 161, 197);">
    <path d="M13.999,13.999H0V0.028v-0.029h3.43C9.269-0.001,13.999,6.267,13.999,13.999z"/>
</g></g><g transform="translate(680,880) scale(0.4,0.4)"><g transform="" style="fill: rgb(39, 161, 197);">
<rect width="100" height="100"/>
</g></g><g transform="translate(800,880) scale(0.4,0.4)"><g transform="" style="fill: rgb(39, 161, 197);">
<rect width="100" height="100"/>
</g></g><g transform="translate(920,880) scale(2.8571428571429,2.8571428571429)"><g transform="" style="fill: rgb(39, 161, 197);">
        <path d="M0-0.001h14v13.97v0.029l-3.431,0.001C4.731,13.999,0,7.731,0-0.001z"/>
</g></g><g transform="translate(960,880) scale(2.8571428571429,2.8571428571429)"><g transform="" style="fill: rgb(39, 161, 197);">
    <path d="M0,14V0c0,0,9.15,4.38,14,0.55C14,0.55,14.24,14,0,14z"/>
</g></g><g transform="translate(440,920) scale(2.8571428571429,2.8571428571429)"><g transform="" style="fill: rgb(39, 161, 197);">
    <path d="M13.999,0v14c0,0-9.151-4.381-14-0.551C-0.001,13.449-0.242,0,13.999,0z"/>
</g></g><g transform="translate(480,920) scale(2.8571428571429,2.8571428571429)"><g transform="" style="fill: rgb(39, 161, 197);">
    <path d="M0,14V0h13.971H14v3.43C14,9.27,7.732,14,0,14z"/>
</g></g><g transform="translate(560,920) scale(0.4,0.4)"><g transform="" style="fill: rgb(39, 161, 197);">
<rect width="100" height="100"/>
</g></g><g transform="translate(640,920) scale(2.8571428571429,2.8571428571429)"><g transform="" style="fill: rgb(39, 161, 197);">
    <path d="M13.999-0.001v14H0.029H0v-3.431C0,4.729,6.267-0.001,13.999-0.001z"/>
</g></g><g transform="translate(680,920) scale(0.4,0.4)"><g transform="" style="fill: rgb(39, 161, 197);">
<rect width="100" height="100"/>
</g></g><g transform="translate(760,920) scale(2.8571428571429,2.8571428571429)"><g transform="" style="fill: rgb(39, 161, 197);">
    <path d="M13.999,0v14c0,0-9.151-4.381-14-0.551C-0.001,13.449-0.242,0,13.999,0z"/>
</g></g><g transform="translate(800,920) scale(2.8571428571429,2.8571428571429)"><g transform="" style="fill: rgb(39, 161, 197);">
    <path d="M0,14V0h13.971H14v3.43C14,9.27,7.732,14,0,14z"/>
</g></g><g transform="translate(320,960) scale(2.8571428571429,2.8571428571429)"><g transform="" style="fill: rgb(39, 161, 197);">
    <path d="M13.999,0v14c0,0-9.151-4.381-14-0.551C-0.001,13.449-0.242,0,13.999,0z"/>
</g></g><g transform="translate(360,960) scale(0.4,0.4)"><g transform="" style="fill: rgb(39, 161, 197);">
<rect width="100" height="100"/>
</g></g><g transform="translate(400,960) scale(2.8571428571429,2.8571428571429)"><g transform="" style="fill: rgb(39, 161, 197);">
    <path d="M0,14V0c0,0,9.15,4.38,14,0.55C14,0.55,14.24,14,0,14z"/>
</g></g><g transform="translate(520,960) scale(2.8571428571429,2.8571428571429)"><g transform="" style="fill: rgb(39, 161, 197);">
    <path d="M13.999,0v14c0,0-9.151-4.381-14-0.551C-0.001,13.449-0.242,0,13.999,0z"/>
</g></g><g transform="translate(560,960) scale(2.8571428571429,2.8571428571429)"><g transform="" style="fill: rgb(39, 161, 197);">
    <path d="M0,14V0h13.971H14v3.43C14,9.27,7.732,14,0,14z"/>
</g></g><g transform="translate(640,960) scale(2.8571428571429,2.8571428571429)"><g transform="" style="fill: rgb(39, 161, 197);">
        <path d="M0-0.001h14v13.97v0.029l-3.431,0.001C4.731,13.999,0,7.731,0-0.001z"/>
</g></g><g transform="translate(680,960) scale(2.8571428571429,2.8571428571429)"><g transform="" style="fill: rgb(39, 161, 197);">
    <path d="M0,14V0h13.971H14v3.43C14,9.27,7.732,14,0,14z"/>
</g></g><g transform="translate(840,960) scale(0.08,0.08)"><g transform="" style="fill: rgb(39, 161, 197);">
<path d="M250,0c138.077,0,250,111.93,250,250c0,138.077-111.923,250-250,250C111.93,500,0,388.077,0,250C0,111.93,111.93,0,250,0z"
	/>
</g></g><g transform="translate(960,960) scale(0.08,0.08)"><g transform="" style="fill: rgb(39, 161, 197);">
<path d="M250,0c138.077,0,250,111.93,250,250c0,138.077-111.923,250-250,250C111.93,500,0,388.077,0,250C0,111.93,111.93,0,250,0z"
	/>
</g></g><g transform="translate(0,0) scale(2.8, 2.8)"><g transform=" translate(100, 0) scale(-1,1) " style="fill: rgb(39, 161, 197);">
<g>
	<path style="fill:none;" d="M85,66.221V33.75C85,23.411,76.414,15,65.859,15H34.14C23.586,15,15,23.411,15,33.75v51.246
		l50.855-0.016C76.414,84.98,85,76.564,85,66.221z"/>
	<path d="M100,66.221V33.75C100,15.141,84.68,0,65.859,0H34.14C15.32,0,0,15.141,0,33.75V100l65.859-0.02
		C84.68,99.98,100,84.84,100,66.221z M85,66.221c0,10.344-8.586,18.76-19.145,18.76L15,84.996V33.75C15,23.411,23.586,15,34.14,15
		h31.719C76.414,15,85,23.411,85,33.75V66.221z"/>
</g>
</g></g><g transform="translate(720,0) scale(2.8, 2.8)"><g transform="" style="fill: rgb(39, 161, 197);">
<g>
	<path style="fill:none;" d="M85,66.221V33.75C85,23.411,76.414,15,65.859,15H34.14C23.586,15,15,23.411,15,33.75v51.246
		l50.855-0.016C76.414,84.98,85,76.564,85,66.221z"/>
	<path d="M100,66.221V33.75C100,15.141,84.68,0,65.859,0H34.14C15.32,0,0,15.141,0,33.75V100l65.859-0.02
		C84.68,99.98,100,84.84,100,66.221z M85,66.221c0,10.344-8.586,18.76-19.145,18.76L15,84.996V33.75C15,23.411,23.586,15,34.14,15
		h31.719C76.414,15,85,23.411,85,33.75V66.221z"/>
</g>
</g></g><g transform="translate(0,720) scale(2.8, 2.8)"><g transform=" translate(100, 0) scale(-1,1)  translate(0,100) scale(1,-1) " style="fill: rgb(39, 161, 197);">
<g>
	<path style="fill:none;" d="M85,66.221V33.75C85,23.411,76.414,15,65.859,15H34.14C23.586,15,15,23.411,15,33.75v51.246
		l50.855-0.016C76.414,84.98,85,76.564,85,66.221z"/>
	<path d="M100,66.221V33.75C100,15.141,84.68,0,65.859,0H34.14C15.32,0,0,15.141,0,33.75V100l65.859-0.02
		C84.68,99.98,100,84.84,100,66.221z M85,66.221c0,10.344-8.586,18.76-19.145,18.76L15,84.996V33.75C15,23.411,23.586,15,34.14,15
		h31.719C76.414,15,85,23.411,85,33.75V66.221z"/>
</g>
</g></g><g transform="translate(80,80) scale(1.2, 1.2)"><g transform="" style="fill: rgb(39, 161, 197);">
<g>
	<circle cx="17.33" cy="17.33" r="16.83"/>
	<circle cx="50" cy="17.33" r="16.83"/>
	<circle cx="82.67" cy="17.33" r="16.83"/>
	<circle cx="17.33" cy="82.67" r="16.83"/>
	<circle cx="50" cy="82.67" r="16.83"/>
	<circle cx="82.67" cy="82.67" r="16.83"/>
	<circle cx="17.33" cy="50" r="16.83"/>
	<circle cx="50" cy="50" r="16.83"/>
	<circle cx="82.67" cy="50" r="16.83"/>
</g>
</g></g><g transform="translate(800,80) scale(1.2, 1.2)"><g transform="" style="fill: rgb(39, 161, 197);">
<g>
	<circle cx="17.33" cy="17.33" r="16.83"/>
	<circle cx="50" cy="17.33" r="16.83"/>
	<circle cx="82.67" cy="17.33" r="16.83"/>
	<circle cx="17.33" cy="82.67" r="16.83"/>
	<circle cx="50" cy="82.67" r="16.83"/>
	<circle cx="82.67" cy="82.67" r="16.83"/>
	<circle cx="17.33" cy="50" r="16.83"/>
	<circle cx="50" cy="50" r="16.83"/>
	<circle cx="82.67" cy="50" r="16.83"/>
</g>
</g></g><g transform="translate(80,800) scale(1.2, 1.2)"><g transform="" style="fill: rgb(39, 161, 197);">
<g>
	<circle cx="17.33" cy="17.33" r="16.83"/>
	<circle cx="50" cy="17.33" r="16.83"/>
	<circle cx="82.67" cy="17.33" r="16.83"/>
	<circle cx="17.33" cy="82.67" r="16.83"/>
	<circle cx="50" cy="82.67" r="16.83"/>
	<circle cx="82.67" cy="82.67" r="16.83"/>
	<circle cx="17.33" cy="50" r="16.83"/>
	<circle cx="50" cy="50" r="16.83"/>
	<circle cx="82.67" cy="50" r="16.83"/>
</g>
</g></g></g></svg>